REM DIRINDEX 1\2,1\3\7,1\3\8,1\4\9,1\4\10,1\4\11,1\5\12,1\5\13,1\5\14,1\6\15,1\6\16,1\6\17
REM DIRNAME "folder01","folder02","folder03","folder04","folder05","folder06","folder07","folder08","folder09","folder10","folder11","folder12","folder13","folder14","folder15","folder16","folder17"
TITLE ""
FILE "2Q_t_0718-0734.mp3" MP3
  TRACK 01 AUDIO
    TITLE "0:"
    INDEX 01 00:00:00
  TRACK 02 AUDIO
    TITLE "7:cjc174_3205"
    INDEX 01 00:00:10
  TRACK 03 AUDIO
    TITLE "0:"
    INDEX 01 00:01:35
  TRACK 04 AUDIO
    TITLE "8:cjc174_3206"
    INDEX 01 00:02:05
  TRACK 05 AUDIO
    TITLE "0:"
    INDEX 01 00:04:02
  TRACK 06 AUDIO
    TITLE "7:cjc174_3207"
    INDEX 01 00:04:45
  TRACK 07 AUDIO
    TITLE "0:"
    INDEX 01 00:05:51
  TRACK 08 AUDIO
    TITLE "8:cjc174_3208"
    INDEX 01 00:06:31
  TRACK 09 AUDIO
    TITLE "0:"
    INDEX 01 00:10:19
  TRACK 10 AUDIO
    TITLE "7:cjc174_3209"
    INDEX 01 00:10:60
  TRACK 11 AUDIO
    TITLE "0:"
    INDEX 01 00:11:67
  TRACK 12 AUDIO
    TITLE "8:cjc174_3210"
    INDEX 01 00:12:39
  TRACK 13 AUDIO
    TITLE "0:"
    INDEX 01 00:13:52
  TRACK 14 AUDIO
    TITLE "7:cjc174_3211"
    INDEX 01 00:14:22
  TRACK 15 AUDIO
    TITLE "0:"
    INDEX 01 00:15:51
  TRACK 16 AUDIO
    TITLE "8:cjc174_3212"
    INDEX 01 00:16:25
  TRACK 17 AUDIO
    TITLE "0:"
    INDEX 01 00:19:49
  TRACK 18 AUDIO
    TITLE "7:cjc174_3213"
    INDEX 01 00:20:19
  TRACK 19 AUDIO
    TITLE "0:"
    INDEX 01 00:21:16
  TRACK 20 AUDIO
    TITLE "8:cjc174_3214"
    INDEX 01 00:21:63
  TRACK 21 AUDIO
    TITLE "0:"
    INDEX 01 00:24:73
  TRACK 22 AUDIO
    TITLE "7:cjc174_3215"
    INDEX 01 00:25:42
  TRACK 23 AUDIO
    TITLE "0:"
    INDEX 01 00:26:66
  TRACK 24 AUDIO
    TITLE "8:cjc174_3216"
    INDEX 01 00:27:39
  TRACK 25 AUDIO
    TITLE "0:"
    INDEX 01 00:29:04
  TRACK 26 AUDIO
    TITLE "7:cjc174_3217"
    INDEX 01 00:29:49
  TRACK 27 AUDIO
    TITLE "0:"
    INDEX 01 00:30:56
  TRACK 28 AUDIO
    TITLE "8:cjc174_3218"
    INDEX 01 00:31:27
  TRACK 29 AUDIO
    TITLE "0:"
    INDEX 01 00:32:61
  TRACK 30 AUDIO
    TITLE "7:cjc174_3219"
    INDEX 01 00:33:31
  TRACK 31 AUDIO
    TITLE "0:"
    INDEX 01 00:34:46
  TRACK 32 AUDIO
    TITLE "8:cjc174_3220"
    INDEX 01 00:35:15
  TRACK 33 AUDIO
    TITLE "0:"
    INDEX 01 00:36:49
  TRACK 34 AUDIO
    TITLE "7:cjc174_3221"
    INDEX 01 00:37:21
  TRACK 35 AUDIO
    TITLE "0:"
    INDEX 01 00:38:23
  TRACK 36 AUDIO
    TITLE "8:cjc174_3222"
    INDEX 01 00:39:03
  TRACK 37 AUDIO
    TITLE "0:"
    INDEX 01 00:41:50
  TRACK 38 AUDIO
    TITLE "2:cjc174_3223"
    INDEX 01 00:42:19
  TRACK 39 AUDIO
    TITLE "0:"
    INDEX 01 00:43:28
  TRACK 40 AUDIO
    TITLE "7:cjc174_3224"
    INDEX 01 00:43:73
  TRACK 41 AUDIO
    TITLE "0:"
    INDEX 01 00:45:42
  TRACK 42 AUDIO
    TITLE "8:cjc174_3225"
    INDEX 01 00:46:16
  TRACK 43 AUDIO
    TITLE "0:"
    INDEX 01 00:49:13
  TRACK 44 AUDIO
    TITLE "7:cjc174_3226"
    INDEX 01 00:49:58
  TRACK 45 AUDIO
    TITLE "0:"
    INDEX 01 00:50:59
  TRACK 46 AUDIO
    TITLE "8:cjc174_3227"
    INDEX 01 00:51:39
  TRACK 47 AUDIO
    TITLE "0:"
    INDEX 01 00:52:33
  TRACK 48 AUDIO
    TITLE "7:cjc174_3228"
    INDEX 01 00:53:01
  TRACK 49 AUDIO
    TITLE "0:"
    INDEX 01 00:54:08
  TRACK 50 AUDIO
    TITLE "8:cjc174_3229"
    INDEX 01 00:54:57
  TRACK 51 AUDIO
    TITLE "0:"
    INDEX 01 00:55:49
  TRACK 52 AUDIO
    TITLE "7:cjc174_3230"
    INDEX 01 00:56:21
  TRACK 53 AUDIO
    TITLE "0:"
    INDEX 01 00:57:36
  TRACK 54 AUDIO
    TITLE "8:cjc174_3231"
    INDEX 01 00:58:08
  TRACK 55 AUDIO
    TITLE "0:"
    INDEX 01 00:59:27
  TRACK 56 AUDIO
    TITLE "7:cjc174_3232"
    INDEX 01 00:59:74
  TRACK 57 AUDIO
    TITLE "0:"
    INDEX 01 01:01:06
  TRACK 58 AUDIO
    TITLE "8:cjc174_3233"
    INDEX 01 01:01:51
  TRACK 59 AUDIO
    TITLE "0:"
    INDEX 01 01:02:66
  TRACK 60 AUDIO
    TITLE "7:cjc174_3234"
    INDEX 01 01:03:36
  TRACK 61 AUDIO
    TITLE "0:"
    INDEX 01 01:04:40
  TRACK 62 AUDIO
    TITLE "8:cjc174_3235"
    INDEX 01 01:05:14
  TRACK 63 AUDIO
    TITLE "0:"
    INDEX 01 01:07:13
  TRACK 64 AUDIO
    TITLE "7:cjc174_3236"
    INDEX 01 01:07:58
  TRACK 65 AUDIO
    TITLE "0:"
    INDEX 01 01:08:69
  TRACK 66 AUDIO
    TITLE "8:cjc174_3237"
    INDEX 01 01:09:43
  TRACK 67 AUDIO
    TITLE "0:"
    INDEX 01 01:11:57
  TRACK 68 AUDIO
    TITLE "7:cjc174_3238"
    INDEX 01 01:12:27
  TRACK 69 AUDIO
    TITLE "0:"
    INDEX 01 01:13:33
  TRACK 70 AUDIO
    TITLE "8:cjc174_3239"
    INDEX 01 01:14:09
  TRACK 71 AUDIO
    TITLE "0:"
    INDEX 01 01:16:41
